<?xml version="1.0" encoding="UTF-8"?>
<svg width="200" height="187" version="1.1" viewBox="0 0 200 187" xml:space="preserve" xmlns="http://www.w3.org/2000/svg"><g transform="translate(-305,7)"><path d="m320-8 188 182 3-87-103-97z" fill="#ff7800"/><path transform="matrix(.18709 .18709 -.18709 .18709 315.15 -129.62)" d="m622.42 158.83v-52.928h24.729v3.3588h-21.075v21.223h19.562v3.3219h-19.562v21.703h22.293v3.3218zm62.746 0v-21.998q0-13.62-9.8179-13.62-5.4626 0-8.969 4.0231-3.5064 3.9862-3.5064 9.8917v21.703h-3.3957v-37.795h3.3957v6.8652h0.14764q4.1339-7.7879 12.918-7.7879 6.127 0 9.375 4.097 3.248 4.06 3.248 11.626v22.995zm41.597 0v-6.8652h-0.14764q-1.8455 3.5802-5.4626 5.6841t-8.157 2.1038q-6.9759 0-11.405-5.0935-4.3922-5.0935-4.3922-14.063 0-9.1536 4.7982-14.801 4.8351-5.6841 12.512-5.6841 8.4892 0 12.106 6.9759h0.14764v-24.213h3.3957v55.955zm0-22.995q0-5.2781-3.3588-8.9321-3.3219-3.691-8.969-3.691-5.9424 0-9.8179 4.5768-3.8755 4.5399-3.8755 12.512 0 7.8248 3.4695 12.106 3.5064 4.2446 9.0059 4.2446 6.4592 0 10.002-3.9862 3.5433-4.0231 3.5433-9.781zm16.314 4.2446q0 7.7879 3.5802 12.18 3.6171 4.3922 9.8917 4.3922 6.3484 0 12.402-4.6875v3.6171q-5.8686 4.1708-13.103 4.1708-7.3081 0-11.811-5.2412-4.503-5.2411-4.503-14.801 0-8.2677 4.6875-13.915 4.7244-5.6841 12.254-5.6841 7.0497 0 10.814 4.9459t3.7648 13.509v1.5133zm24.434-3.1004q-0.22146-6.533-3.1373-10.15-2.9158-3.6171-8.0463-3.6171-5.315 0-8.8214 3.5802-3.4695 3.5433-4.2815 10.187zm12.217 1.3656v-3.3218h20.189v3.3218zm32.37 17.384h24.397v3.1004h-29.934v-1.2918l25.098-33.403h-23.29v-3.1004h29.048v0.92274zm58.428 3.1004v-6.8652h-0.14764q-3.9493 7.7879-12.18 7.7879-13.398 0-13.398-16.868v-21.85h3.4326v21.001q0 7.6772 2.5098 11.147 2.5468 3.4695 7.9724 3.4695 5.278 0 8.5261-3.8755 3.2849-3.8755 3.2849-10.335v-21.407h3.3957v37.795zm14.801-20.485v-3.3218h20.189v3.3218zm31.521 20.485v-52.928h24.729v3.3588h-21.075v21.223h19.562v3.3219h-19.562v21.703h22.293v3.3218zm62.746 0v-21.998q0-13.62-9.8179-13.62-5.4626 0-8.969 4.0231-3.5064 3.9862-3.5064 9.8917v21.703h-3.3957v-37.795h3.3957v6.8652h0.14764q4.1339-7.7879 12.918-7.7879 6.127 0 9.375 4.097 3.248 4.06 3.248 11.626v22.995zm41.597 0v-6.8652h-0.1477q-1.8454 3.5802-5.4626 5.6841-3.6171 2.1038-8.157 2.1038-6.9759 0-11.405-5.0935-4.3922-5.0935-4.3922-14.063 0-9.1536 4.7982-14.801 4.8352-5.6841 12.512-5.6841 8.4892 0 12.106 6.9759h0.1477v-24.213h3.3956v55.955zm0-22.995q0-5.2781-3.3588-8.9321-3.3218-3.691-8.969-3.691-5.9424 0-9.8179 4.5768-3.8755 4.5399-3.8755 12.512 0 7.8248 3.4695 12.106 3.5064 4.2446 9.0059 4.2446 6.4591 0 10.002-3.9862 3.5433-4.0231 3.5433-9.781zm16.314 4.2446q0 7.7879 3.5802 12.18 3.6171 4.3922 9.8917 4.3922 6.3484 0 12.402-4.6875v3.6171q-5.8686 4.1708-13.103 4.1708-7.308 0-11.811-5.2412-4.5029-5.2411-4.5029-14.801 0-8.2677 4.6875-13.915 4.7244-5.6841 12.254-5.6841 7.0497 0 10.814 4.9459 3.7647 4.9459 3.7647 13.509v1.5133zm24.434-3.1004q-0.2214-6.533-3.1373-10.15-2.9158-3.6171-8.0462-3.6171-5.315 0-8.8214 3.5802-3.4695 3.5433-4.2815 10.187zm-444.7 117.21h-2.7313l-19.341-52.928h4.097l15.317 42.63q0.95965 2.6575 1.3656 5.0197h0.14764q0.36909-1.8824 1.5133-5.0935l16.277-42.557h3.9124zm21.666-18.75q0 7.7879 3.5802 12.18 3.6171 4.3922 9.8917 4.3922 6.3484 0 12.402-4.6875v3.6171q-5.8686 4.1708-13.103 4.1708-7.3081 0-11.811-5.2412-4.503-5.2411-4.503-14.801 0-8.2677 4.6875-13.915 4.7244-5.6841 12.254-5.6841 7.0497 0 10.814 4.9459 3.7648 4.9459 3.7648 13.509v1.5133zm24.434-3.1004q-0.22145-6.533-3.1373-10.15t-8.0463-3.6171q-5.315 0-8.8214 3.5802-3.4695 3.5433-4.2815 10.187zm30.746-12.402q-1.6978-1.218-3.9862-1.218-4.466 0-7.4926 4.6137-3.0266 4.6137-3.0266 13.103v17.753h-3.3218v-37.795h3.3218v8.3784h0.14764q1.2918-4.3184 4.097-6.7175 2.8051-2.3991 6.4961-2.3991 2.1038 0 3.7648 0.66437zm5.9055 32.591v-4.097q1.9193 1.6609 4.6506 2.6206 2.7313 0.95964 4.7244 0.95964 8.8952 0 8.8952-7.2712 0-2.5098-1.9562-4.2815-1.9562-1.7717-6.3484-3.654-5.4257-2.3622-7.6403-4.872-2.1777-2.5468-2.1777-6.1639 0-4.6137 3.5064-7.4557 3.5433-2.842 8.7106-2.842 4.872 0 8.3415 1.9931v3.8386q-4.2077-2.7313-8.7106-2.7313-3.7278 0-6.0162 1.9562-2.2884 1.9193-2.2884 5.0197 0 2.6944 1.4395 4.3922 1.4395 1.6609 6.3484 3.8386 5.9055 2.6575 8.1201 4.9459 2.2146 2.2515 2.2146 6.0162 0 4.503-3.3957 7.4557-3.3588 2.9158-9.3012 2.9158-5.4626 0-9.1166-2.5837zm55.77 0q-4.2077 2.5837-10.039 2.5837-7.7141 0-12.438-5.2781-4.7244-5.315-4.7244-13.878 0-9.0059 5.315-14.727 5.315-5.7579 13.657-5.7579 4.3184 0 8.3784 1.7717v3.8386q-4.06-2.5098-8.8952-2.5098-6.6437 0-10.778 4.7982-4.1339 4.7613-4.1339 12.365 0 7.345 3.7648 11.811 3.8017 4.466 10.002 4.466 5.6841 0 9.8917-3.0266zm34.769 1.6609v-22.662q0-6.7175-2.436-9.8179-2.436-3.1373-7.6034-3.1373-4.872 0-8.563 3.8017-3.691 3.8017-3.691 10.888v20.928h-3.3957v-55.955h3.3957v24.951h0.14764q4.466-7.7141 12.992-7.7141 6.127 0 9.3381 3.9493 3.2111 3.9493 3.2111 11.331v23.438zm14.764 0v-55.955h3.3957v55.955zm40.453 0v-6.8652h-0.14763q-3.9493 7.7879-12.18 7.7879-13.398 0-13.398-16.868v-21.85h3.4326v21.001q0 7.6772 2.5098 11.147 2.5468 3.4695 7.9724 3.4695 5.2781 0 8.5261-3.8755 3.2849-3.8755 3.2849-10.335v-21.407h3.3957v37.795zm-3.8755-43.848q-0.99656 0-1.8086-0.70128-0.81201-0.73819-0.81201-1.9562 0-1.1442 0.7751-1.8455 0.812-0.70128 1.7716-0.70128 1.0704 0 1.9193 0.73819 0.88583 0.70128 0.88583 1.8086 0 1.1442-0.81201 1.9193-0.7751 0.73819-1.9193 0.73819zm-12.291 0q-1.0335 0-1.8455-0.70128-0.81201-0.73819-0.81201-1.9562 0-1.1442 0.81201-1.8455t1.7717-0.70128q1.0704 0 1.9193 0.73819 0.84892 0.70128 0.84892 1.8086 0 1.1442-0.7751 1.9193-0.7751 0.73819-1.9193 0.73819zm29.712 42.188v-4.097q1.9193 1.6609 4.6506 2.6206 2.7313 0.95964 4.7244 0.95964 8.8952 0 8.8952-7.2712 0-2.5098-1.9562-4.2815-1.9562-1.7717-6.3484-3.654-5.4257-2.3622-7.6403-4.872-2.1776-2.5468-2.1776-6.1639 0-4.6137 3.5064-7.4557 3.5433-2.842 8.7106-2.842 4.872 0 8.3415 1.9931v3.8386q-4.2077-2.7313-8.7106-2.7313-3.7279 0-6.0162 1.9562-2.2884 1.9193-2.2884 5.0197 0 2.6944 1.4395 4.3922 1.4395 1.6609 6.3484 3.8386 5.9055 2.6575 8.1201 4.9459 2.2146 2.2515 2.2146 6.0162 0 4.503-3.3957 7.4557-3.3588 2.9158-9.3012 2.9158-5.4626 0-9.1166-2.5837zm29.343 0v-4.097q1.9193 1.6609 4.6506 2.6206 2.7313 0.95964 4.7244 0.95964 8.8952 0 8.8952-7.2712 0-2.5098-1.9562-4.2815-1.9562-1.7717-6.3484-3.654-5.4257-2.3622-7.6403-4.872-2.1777-2.5468-2.1777-6.1639 0-4.6137 3.5064-7.4557 3.5433-2.842 8.7106-2.842 4.872 0 8.3415 1.9931v3.8386q-4.2077-2.7313-8.7106-2.7313-3.7278 0-6.0162 1.9562-2.2884 1.9193-2.2884 5.0197 0 2.6944 1.4395 4.3922 1.4395 1.6609 6.3484 3.8386 5.9055 2.6575 8.1201 4.9459 2.2146 2.2515 2.2146 6.0162 0 4.503-3.3957 7.4557-3.3588 2.9158-9.3012 2.9158-5.4626 0-9.1166-2.5837zm32.111-17.089q0 7.7879 3.5802 12.18 3.6171 4.3922 9.8917 4.3922 6.3484 0 12.402-4.6875v3.6171q-5.8686 4.1708-13.103 4.1708-7.3081 0-11.811-5.2412-4.503-5.2411-4.503-14.801 0-8.2677 4.6875-13.915 4.7244-5.6841 12.254-5.6841 7.0497 0 10.814 4.9459 3.7648 4.9459 3.7648 13.509v1.5133zm24.434-3.1004q-0.22145-6.533-3.1373-10.15t-8.0463-3.6171q-5.315 0-8.8214 3.5802-3.4695 3.5433-4.2815 10.187zm12.918 21.85v-55.955h3.3957v55.955zm40.453 0v-6.8652h-0.14764q-3.9493 7.7879-12.18 7.7879-13.398 0-13.398-16.868v-21.85h3.4326v21.001q0 7.6772 2.5098 11.147 2.5468 3.4695 7.9724 3.4695 5.278 0 8.5261-3.8755 3.2849-3.8755 3.2849-10.335v-21.407h3.3957v37.795zm41.191 0v-21.998q0-13.62-9.8179-13.62-5.4626 0-8.969 4.0231-3.5064 3.9862-3.5064 9.8917v21.703h-3.3957v-37.795h3.3957v6.8652h0.1476q4.1339-7.7879 12.918-7.7879 6.127 0 9.375 4.097 3.2481 4.06 3.2481 11.626v22.995zm44.993-2.8051q0 10.667-4.6505 15.613-4.6506 4.9459-14.469 4.9459-5.4626 0-11.257-2.8789v-3.5433q5.9794 3.3218 11.331 3.3218 15.65 0 15.65-16.535v-4.909h-0.1477q-4.466 7.7141-13.62 7.7141-6.9759 0-11.405-5.0566-4.3922-5.0566-4.3922-14.099t4.7613-14.764 12.549-5.721q8.3416 0 12.106 6.9021h0.1477v-5.9793h3.3956zm-3.3956-20.485q0-5.0197-3.3957-8.6737-3.3588-3.654-8.7845-3.654-6.2377 0-10.039 4.6875-3.8017 4.6875-3.8017 12.402 0 7.751 3.4695 12.069 3.5064 4.2815 9.2274 4.2815 6.09 0 9.7071-3.9493 3.6172-3.9493 3.6172-9.6703z" style="white-space:pre" aria-label="Ende-zu-Ende
Verschlüsselung"/></g></svg>
