<?xml version="1.0" encoding="utf-8"?>
<!-- Generator: Adobe Illustrator 14.0.0, SVG Export Plug-In . SVG Version: 6.00 Build 43363)  -->
<!DOCTYPE svg PUBLIC "-//W3C//DTD SVG 1.1//EN" "http://www.w3.org/Graphics/SVG/1.1/DTD/svg11.dtd">
<svg version="1.1" id="Ebene_1" xmlns="http://www.w3.org/2000/svg" xmlns:xlink="http://www.w3.org/1999/xlink" x="0px" y="0px"
	 width="180.004px" height="50.108px" viewBox="10.447 -0.208 180.004 50.108"
	 enable-background="new 10.447 -0.208 180.004 50.108" xml:space="preserve">
<g>
	<path d="M68.815,39.856V13.917h3.087l0.815,3.311c3.146-2.207,6.308-3.311,9.487-3.311c5.978,0,8.966,3.221,8.966,9.66v16.28
		h-4.569V23.503c0-3.854-1.919-5.78-5.755-5.78c-2.62,0-5.106,1.096-7.46,3.285v18.848L68.815,39.856L68.815,39.856z"/>
	<path d="M119.382,28.196h-17.464c0,5.303,3.342,7.955,10.028,7.955c2.289,0,4.578-0.247,6.867-0.742v3.704
		c-2.289,0.495-5.072,0.742-8.35,0.742c-8.745,0-13.118-4.422-13.118-13.266c0-8.447,4.141-12.672,12.425-12.672
		C117.709,13.917,120.913,18.678,119.382,28.196z M101.917,24.392h13.289c0.231-4.546-1.828-6.819-6.176-6.819
		C104.584,17.574,102.214,19.847,101.917,24.392z"/>
	<path d="M126.545,9.719h2.866l0.988,4.199h6.028v3.706h-5.313V32.52c0,2.42,1.048,3.632,3.139,3.632h2.174v3.705h-3.36
		c-4.348,0-6.521-2.33-6.521-6.992V9.719L126.545,9.719z"/>
	<path d="M141.366,31.778c0-5.32,3.507-7.979,10.524-7.979c2.584,0,4.841,0.165,6.768,0.495v-2.446c0-2.816-2.332-4.224-6.991-4.224
		c-2.668,0-5.403,0.411-8.201,1.236v-3.707c2.799-0.823,5.533-1.236,8.201-1.236c7.708,0,11.56,2.767,11.56,8.301v17.637h-2.322
		l-1.828-1.828c-2.257,1.218-4.908,1.828-7.956,1.828C144.619,39.856,141.366,37.164,141.366,31.778z M151.891,27.504
		c-3.97,0-5.954,1.399-5.954,4.2c0,2.964,1.729,4.447,5.187,4.447c3.162,0,5.674-0.676,7.536-2.027v-6.126
		C156.845,27.669,154.591,27.504,151.891,27.504z"/>
	<path d="M170.64,38.621v-3.952c2.881,0.988,5.879,1.483,8.992,1.483c4.133,0,6.199-1.236,6.199-3.706
		c0-2.305-1.358-3.458-4.076-3.458h-4.199c-5.435,0-8.151-2.553-8.151-7.659c0-4.94,3.598-7.412,10.794-7.412
		c3.097,0,6.086,0.413,8.968,1.235v3.953c-2.881-0.988-5.871-1.482-8.968-1.482c-4.315,0-6.471,1.235-6.471,3.705
		c0,2.306,1.275,3.458,3.829,3.458h4.199c5.764,0,8.646,2.554,8.646,7.658c0,4.941-3.59,7.413-10.77,7.413
		C176.519,39.856,173.522,39.444,170.64,38.621z"/>
</g>
<g>
	<path fill="#FF7800" d="M37.023,2.839h-6.094c-1.215,0-2.201,0.985-2.201,2.201s0.985,2.201,2.201,2.201h0.846v9.987
		c0,1.215,0.985,2.2,2.201,2.2s2.2-0.985,2.2-2.2V7.24h0.847c1.215,0,2.201-0.985,2.201-2.201S38.239,2.839,37.023,2.839z"/>
	<path fill="#FF7800" d="M37.023,45.496h-0.847v-9.987c0-1.215-0.985-2.2-2.2-2.2s-2.201,0.985-2.201,2.2v9.987h-0.846
		c-1.215,0-2.201,0.985-2.201,2.201s0.985,2.201,2.201,2.201h6.094c1.215,0,2.201-0.985,2.201-2.201S38.239,45.496,37.023,45.496z"
		/>
	<path fill="#FF7800" d="M24.836,24.167h-9.987v-0.846c0-1.215-0.985-2.2-2.201-2.2s-2.201,0.985-2.201,2.2v6.094
		c0,1.215,0.985,2.201,2.201,2.201s2.201-0.985,2.201-2.201v-0.847h9.987c1.215,0,2.2-0.985,2.2-2.2S26.051,24.167,24.836,24.167z"
		/>
	<path fill="#FF7800" d="M55.305,21.121c-1.215,0-2.2,0.985-2.2,2.2v0.846h-9.988c-1.215,0-2.2,0.985-2.2,2.201s0.985,2.2,2.2,2.2
		h9.988v0.847c0,1.215,0.985,2.201,2.2,2.201c1.215,0,2.201-0.985,2.201-2.201v-6.094C57.506,22.106,56.52,21.121,55.305,21.121z"/>
	<path fill="#FF7800" d="M28.023,17.304l-7.062-7.062l0.6-0.599c0.859-0.859,0.858-2.252,0-3.112c-0.86-0.859-2.253-0.859-3.112,0
		l-2.152,2.154c0,0-0.001,0-0.001,0.001c-0.001,0-0.001,0.001-0.002,0.001l-2.152,2.153c-0.859,0.859-0.859,2.253,0,3.112
		c0.43,0.43,0.993,0.645,1.556,0.645c0.563,0,1.127-0.215,1.556-0.645l0.6-0.599l7.061,7.062c0.43,0.43,0.994,0.644,1.556,0.644
		c0.563,0,1.126-0.215,1.556-0.644C28.883,19.556,28.883,18.163,28.023,17.304z"/>
	<path fill="#FF7800" d="M52.768,37.739c-0.86-0.859-2.252-0.86-3.111,0l-0.599,0.599l-7.062-7.062
		c-0.859-0.859-2.252-0.859-3.111,0c-0.859,0.86-0.859,2.252,0,3.112l7.062,7.061l-0.599,0.599c-0.859,0.86-0.859,2.252,0,3.112
		c0.43,0.43,0.994,0.645,1.557,0.645c0.563,0,1.126-0.216,1.556-0.645l2.147-2.146c0.002-0.002,0.005-0.005,0.008-0.007
		c0.002-0.003,0.006-0.007,0.007-0.008l2.146-2.147C53.628,39.992,53.628,38.598,52.768,37.739z"/>
	<path fill="#FF7800" d="M29.069,31.276c-0.859-0.859-2.252-0.859-3.111,0l-7.062,7.062l-0.6-0.6c-0.859-0.859-2.252-0.859-3.111,0
		c-0.859,0.859-0.859,2.252,0,3.112l2.151,2.152c0.001,0,0.002,0.002,0.003,0.003s0.003,0.002,0.004,0.003l2.151,2.151
		c0.43,0.431,0.994,0.644,1.557,0.644c0.563,0,1.126-0.215,1.556-0.644c0.86-0.86,0.86-2.252,0-3.112l-0.599-0.599l7.061-7.062
		C29.928,33.528,29.928,32.135,29.069,31.276z"/>
	<path fill="#FF7800" d="M56.52,3.522l-2.54-1.681c0,0,0-0.001-0.001-0.001c0,0-0.001-0.001-0.001-0.001l-2.539-1.681
		c-1.014-0.671-2.379-0.394-3.05,0.62c-0.67,1.013-0.393,2.378,0.621,3.049l0.706,0.467l-5.513,8.327
		c-0.67,1.013-0.393,2.378,0.621,3.05c0.374,0.247,0.795,0.366,1.213,0.366c0.713,0,1.413-0.346,1.837-0.986l5.514-8.327
		l0.705,0.466c0.374,0.248,0.795,0.367,1.213,0.367c0.713,0,1.413-0.346,1.837-0.986C57.811,5.559,57.533,4.193,56.52,3.522z"/>
</g>
</svg>
